# xmcd
#
# Track frame offsets:
#   183
#   11333
#   28558
#   40295
#   51745
#   65570
#   80033
#   89658
#   103795
#   116358
#   130783
#   140958
#   153208
#   164283
#   174770
#   195020
#   206533
#   220233
#
# Disc length: 3117 seconds
#
# Revision: 3
# Processed by: cddbd v1.5PL3 Copyright (c) Steve Scherf et al.
# Submitted via: Media_Universe 3.0
#
DISCID=f70c2b12
DTITLE=Jim Croce - The Very Best Of
DYEAR=1991
DGENRE=Blues
TTITLE0=Time In A Bottle
TTITLE1=Operator (That's not the way it feels)
TTITLE2=It Doesn't Have To Be That Way
TTITLE3=I'll Have To Say I Love You In A Song
TTITLE4=Lover's Cross
TTITLE5=These Dreams
TTITLE6=Photographs And Memories
TTITLE7=New York's Not My Home
TTITLE8=One Less Set Of Footsteps
TTITLE9=I Got A Name
TTITLE10=Alabama Rain
TTITLE11=Dreamin' Again
TTITLE12=Thursday
TTITLE13=Which Way Are You Goin'
TTITLE14=Chain Gang Medly
TTITLE15=Workin' At The Car Wash Blues
TTITLE16=Bad Bad Leroy Brown
TTITLE17=You Don't Mess Around With Jim
EXTD=
EXTT0=
EXTT1=
EXTT2=
EXTT3=
EXTT4=
EXTT5=
EXTT6=
EXTT7=
EXTT8=
EXTT9=
EXTT10=
EXTT11=
EXTT12=
EXTT13=
EXTT14=Chain Gang/He Don't Love You/Searchin'
EXTT15=
EXTT16=
EXTT17=
PLAYORDER=
